# Blender 5.1.0
# www.blender.org
mtllib Obstacle_A.mtl
o defaultMaterial.001
v 0.963271 0.360764 -0.000000
v 0.963271 -0.360764 0.000000
v -0.963271 -0.360764 0.000000
v -0.963271 0.360764 -0.000000
v -0.974429 0.346034 0.177546
v -0.974429 -0.346034 0.177546
v -0.974429 -0.235661 0.294399
v -0.974429 0.235661 0.294399
v 0.963271 0.364260 0.174499
v -0.963271 0.364260 0.174499
v -0.963271 0.248132 0.297445
v 0.963271 0.248132 0.297445
v -0.974429 -0.360764 0.011158
v -0.974429 -0.360764 0.155230
v -0.974429 0.360764 0.155230
v -0.974429 0.360764 0.011158
v 0.974429 -0.346034 0.177545
v 0.974429 0.346034 0.177545
v 0.974429 0.235661 0.294398
v 0.974429 -0.235661 0.294398
v 0.963271 -0.371921 0.011157
v 0.963271 -0.371921 0.155230
v -0.963271 -0.371921 0.155230
v -0.963271 -0.371921 0.011158
v 0.963271 -0.119447 1.031828
v 0.963271 0.119447 1.031828
v -0.963271 0.119447 1.031828
v -0.963271 -0.119447 1.031828
v -0.963271 -0.364260 0.174499
v 0.963271 -0.364260 0.174499
v 0.963271 -0.248132 0.297445
v -0.963271 -0.248132 0.297445
v -0.963271 0.371921 0.011158
v -0.963271 0.371921 0.155230
v 0.963271 0.371921 0.155230
v 0.963271 0.371921 0.011157
v -0.963271 -0.238801 0.316588
v 0.963271 -0.238801 0.316588
v 0.963271 -0.132274 1.020796
v -0.963271 -0.132274 1.020796
v 0.963271 0.238801 0.316588
v -0.963271 0.238801 0.316588
v -0.963271 0.132274 1.020796
v 0.963271 0.132274 1.020796
v -0.974429 0.227498 0.316714
v -0.974429 -0.227498 0.316714
v -0.974429 -0.121008 1.020670
v -0.974429 0.121008 1.020670
v 0.974429 -0.227498 0.316714
v 0.974429 0.227498 0.316714
v 0.974429 0.121008 1.020670
v 0.974429 -0.121008 1.020670
v 0.974429 -0.360764 0.155230
v 0.974429 -0.346034 0.177545
v 0.963271 -0.360764 0.000000
v 0.974429 -0.360764 0.011157
v -0.974429 -0.346034 0.177546
v -0.974429 -0.360764 0.155230
v -0.974429 -0.360764 0.011158
v -0.963271 -0.360764 0.000000
v 0.974429 0.360764 0.155230
v 0.974429 0.346034 0.177545
v 0.974429 0.360764 0.011157
v 0.963271 0.360764 -0.000000
v -0.974429 0.360764 0.155230
v -0.974429 0.346034 0.177546
v -0.963271 0.360764 -0.000000
v -0.974429 0.360764 0.011158
v 0.974429 -0.235661 0.294398
v 0.974429 -0.227498 0.316714
v -0.974429 -0.227498 0.316714
v -0.974429 -0.235661 0.294399
v 0.974429 0.227498 0.316714
v 0.974429 0.235661 0.294398
v -0.974429 0.227498 0.316714
v -0.974429 0.235661 0.294399
v 0.974429 -0.121008 1.020670
v -0.974429 -0.121008 1.020670
v 0.974429 0.121008 1.020670
v -0.974429 0.121008 1.020670
v 0.963271 -0.360764 0.000000
v 0.963271 0.360764 -0.000000
v 0.974429 0.360764 0.011157
v 0.974429 -0.360764 0.011157
v 0.974429 -0.360764 0.011157
v 0.974429 -0.360764 0.155230
v -0.974429 0.360764 0.011158
v -0.974429 0.360764 0.155230
v -0.974429 -0.360764 0.155230
v -0.974429 -0.360764 0.011158
v 0.974429 0.360764 0.155230
v 0.974429 0.360764 0.011157
v -0.963271 0.360764 -0.000000
v -0.963271 -0.360764 0.000000
v 0.974429 -0.360764 0.155230
v 0.974429 0.360764 0.155230
v 0.974429 -0.346034 0.177545
v 0.974429 -0.235661 0.294398
v -0.974429 -0.235661 0.294399
v -0.974429 -0.346034 0.177546
v 0.974429 0.235661 0.294398
v 0.974429 0.346034 0.177545
v -0.974429 0.346034 0.177546
v -0.974429 0.235661 0.294399
v -0.974429 0.227498 0.316714
v -0.974429 0.121008 1.020670
v 0.974429 0.121008 1.020670
v 0.974429 0.227498 0.316714
v -0.974429 -0.121008 1.020670
v -0.974429 -0.227498 0.316714
v 0.974429 -0.227498 0.316714
v 0.974429 -0.121008 1.020670
vn -0.3415 0.3416 -0.8756
vn 0.3416 0.3415 -0.8756
vn 0.3415 -0.3416 -0.8756
vn -0.3416 -0.3415 -0.8756
vn -0.9434 0.2827 0.1733
vn -0.9198 0.3043 0.2476
vn -0.9198 -0.3042 0.2478
vn -0.9434 -0.2827 0.1733
vn 0.4035 0.7517 0.5216
vn 0.3825 0.7782 0.4980
vn -0.3825 0.7782 0.4981
vn -0.4033 0.7517 0.5217
vn -0.8756 0.3415 -0.3417
vn -0.8756 -0.3416 -0.3416
vn -0.9079 -0.4041 0.1116
vn -0.9079 0.4041 0.1116
vn 0.9434 -0.2827 0.1733
vn 0.9198 -0.3043 0.2477
vn 0.9198 0.3042 0.2478
vn 0.9434 0.2827 0.1733
vn -0.3416 -0.8756 -0.3416
vn 0.3416 -0.8756 -0.3416
vn 0.3822 -0.9056 0.1838
vn -0.3822 -0.9056 0.1838
vn -0.3383 -0.3055 0.8901
vn 0.3383 -0.3055 0.8901
vn 0.3383 0.3055 0.8901
vn -0.3383 0.3055 0.8901
vn -0.4033 -0.7517 0.5217
vn -0.3825 -0.7782 0.4980
vn 0.3825 -0.7782 0.4980
vn 0.4034 -0.7517 0.5217
vn 0.3416 0.8756 -0.3416
vn -0.3416 0.8756 -0.3416
vn -0.3822 0.9056 0.1838
vn 0.3822 0.9056 0.1838
vn -0.3383 -0.8344 0.4352
vn -0.4026 -0.8754 0.2677
vn 0.4026 -0.8753 0.2677
vn 0.3383 -0.8344 0.4352
vn 0.3383 0.8344 0.4352
vn 0.4026 0.8753 0.2677
vn -0.4026 0.8754 0.2677
vn -0.3383 0.8344 0.4352
vn -0.8695 0.3220 0.3745
vn -0.9343 0.3447 0.0911
vn -0.9343 -0.3447 0.0911
vn -0.8696 -0.3220 0.3744
vn 0.8695 -0.3220 0.3745
vn 0.9343 -0.3447 0.0911
vn 0.9343 0.3447 0.0911
vn 0.8696 0.3220 0.3744
vn 0.9078 -0.4042 0.1116
vn 0.9198 -0.3043 0.2478
vn 0.3416 -0.3416 -0.8756
vn 0.8756 -0.3416 -0.3416
vn -0.9078 -0.4042 0.1117
vn -0.9198 -0.3043 0.2478
vn -0.3416 -0.3416 -0.8756
vn 0.9198 0.3043 0.2478
vn 0.9078 0.4043 0.1116
vn 0.8756 0.3416 -0.3416
vn 0.3416 0.3416 -0.8756
vn -0.9078 0.4042 0.1117
vn -0.9198 0.3043 0.2478
vn -0.3416 0.3416 -0.8756
vn -0.8756 0.3416 -0.3416
vn 0.9343 -0.3448 0.0911
vn 0.9434 -0.2828 0.1733
vn -0.9342 -0.3448 0.0911
vn -0.9434 -0.2829 0.1733
vn 0.9342 0.3448 0.0911
vn 0.9434 0.2828 0.1733
vn -0.9434 0.2828 0.1733
vn -0.9342 0.3448 0.0912
vn -0.8695 -0.3221 0.3744
vn 0.8695 0.3221 0.3744
vn 0.8756 -0.3414 -0.3416
vn 0.3416 -0.3415 -0.8756
vn -0.9078 0.4042 0.1116
vn -0.9078 -0.4042 0.1116
vn 0.9078 0.4042 0.1116
vn 0.9079 0.4041 0.1116
vn 0.9079 -0.4041 0.1116
vn -0.9434 -0.2827 0.1734
vn -0.9434 0.2828 0.1734
vn -0.9343 0.3448 0.0910
vn -0.8695 0.3221 0.3744
vn 0.8695 -0.3221 0.3744
vn 0.9343 -0.3448 0.0910
vt 0.565514 0.999903
vt 0.999903 0.999903
vt 0.999903 0.837216
vt 0.565514 0.837216
vt 0.334766 0.180433
vt 0.359148 0.154620
vt 0.206269 0.154620
vt 0.230651 0.180433
vt 0.481280 0.770015
vt 0.518639 0.770015
vt 0.518638 0.344440
vt 0.481280 0.344440
vt 0.362402 0.117865
vt 0.203015 0.117864
vt 0.203015 0.149690
vt 0.362402 0.149691
vt 0.230651 0.933848
vt 0.206269 0.959661
vt 0.359148 0.959661
vt 0.334766 0.933848
vt 0.007525 0.344226
vt 0.007525 0.769801
vt 0.039351 0.769801
vt 0.039350 0.344226
vt 0.256322 0.344353
vt 0.256322 0.769928
vt 0.309094 0.769928
vt 0.309094 0.344353
vt 0.084137 0.344266
vt 0.046778 0.344266
vt 0.046778 0.769841
vt 0.084137 0.769841
vt 0.557892 0.770056
vt 0.557892 0.344480
vt 0.526066 0.344480
vt 0.526066 0.770056
vt 0.248895 0.344305
vt 0.091565 0.344305
vt 0.091565 0.769880
vt 0.248895 0.769880
vt 0.316522 0.769977
vt 0.473852 0.769977
vt 0.473852 0.344401
vt 0.316522 0.344401
vt 0.309439 0.340867
vt 0.332963 0.185363
vt 0.232454 0.185362
vt 0.255978 0.340867
vt 0.255978 0.773414
vt 0.232454 0.928918
vt 0.332963 0.928918
vt 0.309439 0.773414
vt 0.040798 0.775265
vt 0.050260 0.776745
vt 0.000097 0.769750
vt 0.003767 0.776208
vt 0.040857 0.338778
vt 0.050335 0.337400
vt 0.003855 0.337768
vt 0.000097 0.344175
vt 0.515082 0.776881
vt 0.524560 0.775503
vt 0.561562 0.776513
vt 0.565319 0.770106
vt 0.524619 0.339016
vt 0.515156 0.337537
vt 0.565320 0.344531
vt 0.561650 0.338073
vt 0.093325 0.775133
vt 0.085057 0.775702
vt 0.093380 0.339070
vt 0.085118 0.338415
vt 0.472037 0.775211
vt 0.480299 0.775866
vt 0.480360 0.338580
vt 0.472092 0.339149
vt 0.252570 0.775792
vt 0.252647 0.338441
vt 0.312770 0.775840
vt 0.312847 0.338489
vt 0.203015 0.996416
vt 0.203015 0.999902
vt 0.362402 0.999903
vt 0.362402 0.996417
vt 0.039351 0.773286
vt 0.007525 0.773286
vt 0.557892 0.340995
vt 0.526066 0.340995
vt 0.039350 0.340740
vt 0.007525 0.340740
vt 0.526066 0.773541
vt 0.557892 0.773541
vt 0.362402 0.114379
vt 0.203015 0.114378
vt 0.362402 0.964591
vt 0.203015 0.964590
vt 0.050032 0.773327
vt 0.085539 0.773327
vt 0.085539 0.340780
vt 0.050032 0.340780
vt 0.515385 0.773501
vt 0.479877 0.773501
vt 0.479877 0.340954
vt 0.515385 0.340954
vt 0.473451 0.340915
vt 0.316177 0.340915
vt 0.316177 0.773463
vt 0.473451 0.773462
vt 0.091966 0.340818
vt 0.249240 0.340819
vt 0.249240 0.773366
vt 0.091966 0.773366
s 1
usemtl basic_concrete_barriers
f 4/1/1 1/2/2 2/3/3
f 2/3/3 3/4/4 4/1/1
f 8/5/5 5/6/6 6/7/7
f 6/7/7 7/8/8 8/5/5
f 12/9/9 9/10/10 10/11/11
f 10/11/11 11/12/12 12/9/9
f 16/13/13 13/14/14 14/15/15
f 14/15/15 15/16/16 16/13/13
f 20/17/17 17/18/18 18/19/19
f 18/19/19 19/20/20 20/17/17
f 24/21/21 21/22/22 22/23/23
f 22/23/23 23/24/24 24/21/21
f 28/25/25 25/26/26 26/27/27
f 26/27/27 27/28/28 28/25/25
f 32/29/29 29/30/30 30/31/31
f 30/31/31 31/32/32 32/29/29
f 36/33/33 33/34/34 34/35/35
f 34/35/35 35/36/36 36/33/33
f 40/37/37 37/38/38 38/39/39
f 38/39/39 39/40/40 40/37/37
f 44/41/41 41/42/42 42/43/43
f 42/43/43 43/44/44 44/41/41
f 48/45/45 45/46/46 46/47/47
f 46/47/47 47/48/48 48/45/45
f 52/49/49 49/50/50 50/51/51
f 50/51/51 51/52/52 52/49/49
f 22/23/23 53/53/53 54/54/54
f 54/54/54 30/31/31 22/23/23
f 55/55/55 56/56/56 21/22/22
f 58/57/57 23/24/24 29/30/30
f 29/30/30 57/58/58 58/57/57
f 24/21/21 59/59/14 60/60/59
f 62/61/60 61/62/61 35/36/36
f 35/36/36 9/10/10 62/61/60
f 36/33/33 63/63/62 64/64/63
f 10/11/11 34/35/35 65/65/64
f 65/65/64 66/66/65 10/11/11
f 67/67/66 68/68/67 33/34/34
f 70/69/68 38/39/39 31/32/32
f 31/32/32 69/70/69 70/69/68
f 37/38/38 71/71/70 72/72/71
f 72/72/71 32/29/29 37/38/38
f 12/9/9 41/42/42 73/73/72
f 73/73/72 74/74/73 12/9/9
f 76/75/74 75/76/75 42/43/43
f 42/43/43 11/12/12 76/75/74
f 39/40/40 77/77/49 25/26/26
f 78/78/76 40/37/37 28/25/25
f 44/41/41 26/27/27 79/79/77
f 80/80/45 27/28/28 43/44/44
f 36/33/33 64/64/63 67/67/66
f 67/67/66 33/34/34 36/33/33
f 84/81/78 81/82/79 82/83/63
f 82/83/63 83/84/62 84/81/78
f 86/85/53 22/23/23 21/22/22
f 21/22/22 85/86/56 86/85/53
f 33/34/34 87/87/67 88/88/80
f 88/88/80 34/35/35 33/34/34
f 23/24/24 89/89/81 90/90/14
f 90/90/14 24/21/21 23/24/24
f 35/36/36 91/91/82 92/92/62
f 92/92/62 36/33/33 35/36/36
f 14/15/15 6/7/7 5/6/6
f 5/6/6 15/16/16 14/15/15
f 22/23/23 30/31/31 29/30/30
f 29/30/30 23/24/24 22/23/23
f 16/13/13 93/93/66 94/94/59
f 94/94/59 13/14/14 16/13/13
f 34/35/35 10/11/11 9/10/10
f 9/10/10 35/36/36 34/35/35
f 96/95/83 18/19/19 17/18/18
f 17/18/18 95/96/84 96/95/83
f 24/21/21 60/60/59 55/55/55
f 55/55/55 21/22/22 24/21/21
f 7/8/8 46/47/47 45/46/46
f 45/46/46 8/5/5 7/8/8
f 31/32/32 38/39/39 37/38/38
f 37/38/38 32/29/29 31/32/32
f 11/12/12 42/43/43 41/42/42
f 41/42/42 12/9/9 11/12/12
f 19/20/20 50/51/51 49/50/50
f 49/50/50 20/17/17 19/20/20
f 30/31/31 97/97/54 98/98/17
f 98/98/17 31/32/32 30/31/31
f 32/29/29 99/99/85 100/100/58
f 100/100/58 29/30/30 32/29/29
f 102/101/60 9/10/10 12/9/9
f 12/9/9 101/102/20 102/101/60
f 104/103/86 11/12/12 10/11/11
f 10/11/11 103/104/65 104/103/86
f 47/48/48 28/25/25 27/28/28
f 27/28/28 48/45/45 47/48/48
f 39/40/40 25/26/26 28/25/25
f 28/25/25 40/37/37 39/40/40
f 43/44/44 27/28/28 26/27/27
f 26/27/27 44/41/41 43/44/44
f 51/52/52 26/27/27 25/26/26
f 25/26/26 52/49/49 51/52/52
f 42/43/43 105/105/87 106/106/88
f 106/106/88 43/44/44 42/43/43
f 44/41/41 107/107/77 108/108/72
f 108/108/72 41/42/42 44/41/41
f 110/109/70 37/38/38 40/37/37
f 40/37/37 109/110/76 110/109/70
f 112/111/89 39/40/40 38/39/39
f 38/39/39 111/112/90 112/111/89
f 84/81/78 83/84/62 96/95/83
f 96/95/83 95/96/84 84/81/78
